# WaveFront *.obj file (generated by Autodesk ATF)

mtllib ce198dd2-dc13-413d-a0be-e12e12c6f3ee.mtl

g Body1

v 0.125000 1.911436 2.911436
v 0.125000 1.911612 1.088388
v 1.875000 1.911612 1.088388
v 1.875000 1.911436 2.911436
v 0.125000 0.125000 4.697872
v 1.875000 0.125000 4.697872
v 0.125000 0.125000 -0.698223
v 1.875000 0.125000 -0.698223
v 2.000000 0.000000 5.000000
v 0.000000 0.000000 5.000000
v 0.000000 0.000000 -1.000000
v 2.000000 0.000000 -1.000000
v 2.000000 2.000000 1.000000
v 2.000000 2.000000 3.000000
v 0.000000 2.000000 1.000000
v 0.000000 2.000000 3.000000
vt 0.000000 0.000000 0.000000
vt 4.630541 -0.000000 0.000000
vt -0.000000 4.445000 0.000000
vt 4.630541 4.445000 0.000000
vt 0.000000 0.000000 0.000000
vt 6.417060 -0.000000 0.000000
vt -0.000000 4.445000 0.000000
vt 6.417060 4.445000 0.000000
vt -0.000000 0.000000 0.000000
vt 6.417692 0.000000 0.000000
vt -0.000000 4.445000 0.000000
vt 6.417692 4.445000 0.000000
vt -0.449906 0.317500 0.000000
vt -4.987453 4.855047 0.000000
vt -14.155987 0.317500 0.000000
vt -9.617994 4.855494 0.000000
vt 4.445000 14.155094 0.000000
vt -0.000000 14.155094 0.000000
vt 4.445000 0.449013 0.000000
vt -0.000000 0.449013 0.000000
vt -14.155094 0.317500 0.000000
vt -0.449013 0.317500 0.000000
vt -9.617547 4.855047 0.000000
vt -4.987006 4.855494 0.000000
vt -2.540000 -6.350000 0.000000
vt 2.540000 -6.350000 0.000000
vt -2.540000 8.890000 0.000000
vt 2.540000 8.890000 0.000000
vt 10.160000 5.080000 0.000000
vt 5.080000 5.080000 0.000000
vt 15.240000 0.000000 0.000000
vt -0.000000 0.000000 0.000000
vt -2.540000 0.000000 0.000000
vt 12.700000 0.000000 0.000000
vt 2.540000 5.080000 0.000000
vt 7.620000 5.080000 0.000000
vt 1.270000 2.540000 0.000000
vt -3.810000 2.540000 0.000000
vt 1.270000 -2.540000 0.000000
vt -3.810000 -2.540000 0.000000
vt 3.810000 3.592102 0.000000
vt -1.270000 3.592102 0.000000
vt 3.810000 -3.592102 0.000000
vt -1.270000 -3.592102 0.000000
vt 3.810000 3.592102 0.000000
vt -1.270000 3.592102 0.000000
vt 3.810000 -3.592102 0.000000
vt -1.270000 -3.592102 0.000000
vn 0.000000 -2.540000 -0.000245
vn 0.000000 -2.540000 -0.000245
vn 0.000000 -2.540000 -0.000245
vn 0.000000 -2.540000 -0.000245
vn 0.000000 -1.796051 -1.796051
vn 0.000000 -1.796051 -1.796051
vn 0.000000 -1.796051 -1.796051
vn 0.000000 -1.796051 -1.796051
vn 0.000000 -1.796051 1.796051
vn 0.000000 -1.796051 1.796051
vn 0.000000 -1.796051 1.796051
vn 0.000000 -1.796051 1.796051
vn -2.540000 0.000000 -0.000000
vn -2.540000 0.000000 -0.000000
vn -2.540000 0.000000 -0.000000
vn -2.540000 0.000000 -0.000000
vn 0.000000 2.540000 0.000000
vn 0.000000 2.540000 0.000000
vn 0.000000 2.540000 0.000000
vn 0.000000 2.540000 0.000000
vn 2.540000 0.000000 -0.000000
vn 2.540000 0.000000 -0.000000
vn 2.540000 0.000000 -0.000000
vn 2.540000 0.000000 -0.000000
vn 0.000000 -2.540000 0.000000
vn 0.000000 -2.540000 0.000000
vn 0.000000 -2.540000 0.000000
vn 0.000000 -2.540000 0.000000
vn 2.540000 0.000000 0.000000
vn 2.540000 0.000000 0.000000
vn 2.540000 0.000000 0.000000
vn 2.540000 0.000000 0.000000
vn -2.540000 0.000000 0.000000
vn -2.540000 0.000000 0.000000
vn -2.540000 0.000000 0.000000
vn -2.540000 0.000000 0.000000
vn -0.000000 2.540000 -0.000000
vn -0.000000 2.540000 -0.000000
vn -0.000000 2.540000 -0.000000
vn -0.000000 2.540000 -0.000000
vn 0.000000 1.796051 -1.796051
vn 0.000000 1.796051 -1.796051
vn 0.000000 1.796051 -1.796051
vn 0.000000 1.796051 -1.796051
vn 0.000000 1.796051 1.796051
vn 0.000000 1.796051 1.796051
vn 0.000000 1.796051 1.796051
vn 0.000000 1.796051 1.796051
usemtl Steel_-_Satin
f 1/1/1 2/2/2 4/3/3
f 4/3/3 2/2/2 3/4/4
f 5/5/5 1/6/6 6/7/7
f 6/7/7 1/6/6 4/8/8
f 2/9/9 7/10/10 3/11/11
f 3/11/11 7/10/10 8/12/12
f 6/13/13 4/14/14 8/15/15
f 8/15/15 4/14/14 3/16/16
f 5/17/17 6/18/18 7/19/19
f 7/19/19 6/18/18 8/20/20
f 5/21/21 7/22/22 1/23/23
f 1/23/23 7/22/22 2/24/24
f 9/25/25 10/26/26 12/27/27
f 12/27/27 10/26/26 11/28/28
f 13/29/29 14/30/30 12/31/31
f 12/31/31 14/30/30 9/32/32
f 11/33/33 10/34/34 15/35/35
f 15/35/35 10/34/34 16/36/36
f 14/37/37 13/38/38 16/39/39
f 16/39/39 13/38/38 15/40/40
f 15/41/41 13/42/42 11/43/43
f 11/43/43 13/42/42 12/44/44
f 14/45/45 16/46/46 9/47/47
f 9/47/47 16/46/46 10/48/48

# 16 vertices
# 48 texture params
# 48 normals
# 24 facets

# 1 groups
